<?xml version="1.0" encoding="utf-8"?>
<!-- Generator: Adobe Illustrator 16.0.3, SVG Export Plug-In . SVG Version: 6.00 Build 0)  -->
<!DOCTYPE svg PUBLIC "-//W3C//DTD SVG 1.1//EN" "http://www.w3.org/Graphics/SVG/1.1/DTD/svg11.dtd">
<svg version="1.1" id="Ebene_1" xmlns="http://www.w3.org/2000/svg" xmlns:xlink="http://www.w3.org/1999/xlink" x="0px" y="0px"
	 width="200px" height="83.001px" viewBox="0 0 200 83.001" enable-background="new 0 0 200 83.001" xml:space="preserve">
<g>
	<rect x="17.098" y="24.286" width="3.248" height="34.199"/>
	<rect x="41.125" y="24.286" width="3.248" height="34.199"/>
	<rect x="24.025" y="39.763" width="13.419" height="3.245"/>
	<rect x="0" y="39.763" width="13.419" height="3.245"/>
	<rect x="8.604" y="26.181" transform="matrix(0.7068 -0.7074 0.7074 0.7068 -20.2682 16.8779)" width="3.246" height="13.418"/>
	<polygon points="4.336,53.474 6.631,55.772 16.122,46.282 13.823,43.989 	"/>
	<path d="M56.704,38.536c-3.982,0-5.839-1.974-5.839-5.878v-8.372h2.476v8.294c0,2.377,0.714,4.137,3.421,4.137
		c2.686,0,3.421-1.835,3.421-4.194v-8.237h2.399v8.431C62.582,36.562,60.57,38.536,56.704,38.536z"/>
	<path d="M71.482,38.264v-5.296c0-1.547-0.134-2.996-2.028-2.996c-2.07,0-2.398,2.086-2.398,3.576v4.717h-2.243v-7.597
		c0-0.718-0.037-1.432-0.06-2.147h2.225l0.039,1.469c0.813-1.083,1.78-1.605,3.189-1.605c2.475,0,3.52,1.354,3.52,3.712v6.168
		H71.482z"/>
	<path d="M76.16,26.277v-1.992h2.398v1.992H76.16z M76.24,38.264V28.5h2.241v9.764H76.24z"/>
	<path d="M85.826,38.264h-2.339l-4.019-9.744h2.415l2.897,7.696l2.843-7.696h2.186L85.826,38.264z"/>
	<path d="M92.077,33.837v0.155c0,1.623,0.83,3.074,2.608,3.074c1.258,0,2.111-0.735,2.282-2.011h2.166
		c-0.365,2.417-2.28,3.423-4.523,3.423c-3.112,0-4.737-1.953-4.737-4.931c0-3.055,1.604-5.259,4.852-5.259
		c3.481,0,4.447,2.514,4.447,5.549H92.077z M94.685,29.72c-1.604,0-2.416,1.276-2.551,2.743h4.854
		C96.987,31.014,96.292,29.72,94.685,29.72z"/>
	<path d="M105.823,30.415c-1.914,0-2.592,1.084-2.592,2.882v4.968h-2.243c0,0,0.038-4.582,0-6.864c0,0-0.039-1.894-0.058-2.88h2.185
		l0.059,1.604c0.655-1.141,1.623-1.682,2.976-1.682c0.155,0,0.331,0.021,0.524,0.039v2.01
		C106.362,30.456,106.092,30.415,105.823,30.415z"/>
	<path d="M111.197,38.497c-2.146,0-4.003-0.812-4.078-3.286h2.24c0.058,1.256,0.696,1.892,1.934,1.892
		c0.91,0,1.914-0.481,1.914-1.487c0-0.58-0.347-0.927-0.888-1.178c-0.274-0.118-0.581-0.214-0.929-0.31
		c-0.349-0.097-0.697-0.174-1.064-0.27c-1.449-0.369-2.956-0.91-2.956-2.728c0-2.146,2.259-2.86,4.037-2.86
		c2.032,0,3.696,0.792,3.792,3.074h-2.204c-0.039-1.159-0.601-1.684-1.722-1.684c-0.793,0-1.758,0.369-1.758,1.259
		c0,0.541,0.367,0.849,0.908,1.102c0.27,0.114,0.581,0.212,0.928,0.309c0.348,0.096,0.735,0.174,1.101,0.271
		c1.49,0.385,2.998,0.947,2.998,2.763C115.45,37.744,113.188,38.497,111.197,38.497z"/>
	<path d="M117.248,26.277v-1.992h2.396v1.992H117.248z M117.324,38.264V28.5h2.242v9.764H117.324z"/>
	<path d="M125.445,38.38c-1.74,0-2.727-0.561-2.727-2.417v-5.935h-1.876V28.5h1.876v-1.759l2.242-0.909V28.5h2.223v1.529h-2.223
		v5.104c0,1.123,0.098,1.623,1.335,1.623c0.309,0,0.578-0.078,0.929-0.096v1.586C126.604,38.323,126.026,38.38,125.445,38.38z"/>
	<path d="M134.82,38.264c-0.076-0.464-0.114-0.908-0.154-1.333c-0.79,1.14-1.837,1.547-3.208,1.547
		c-1.855,0-3.441-0.947-3.441-2.959c0-3.325,4.176-3.286,6.533-3.286c0-0.175,0-0.328,0-0.504c0-1.333-0.442-2.126-1.874-2.126
		c-1.143,0-1.702,0.504-1.777,1.661h-2.166c0.019-2.298,1.95-2.995,3.885-2.995c2.594,0,4.119,0.831,4.119,3.713v2.879
		c0,1.123,0.057,2.241,0.188,3.402H134.82z M129.791,26.241v-1.955h2.182v1.955H129.791z M133.778,33.431
		c-1.374,0-3.539,0.231-3.539,1.991c0,1.045,0.912,1.645,1.893,1.645c2.146,0,2.44-1.855,2.44-3.616
		C134.278,33.431,134.029,33.431,133.778,33.431z M133.647,26.241v-1.955h2.182v1.955H133.647z"/>
	<path d="M142.422,38.38c-1.742,0-2.729-0.561-2.729-2.417v-5.935h-1.876V28.5h1.876v-1.759l2.242-0.909V28.5h2.223v1.529h-2.223
		v5.104c0,1.123,0.097,1.623,1.332,1.623c0.312,0,0.583-0.078,0.93-0.096v1.586C143.579,38.323,143,38.38,142.422,38.38z"/>
	<path d="M149.127,38.497c-2.144,0-4.002-0.812-4.076-3.286h2.239c0.059,1.256,0.695,1.892,1.935,1.892
		c0.906,0,1.916-0.481,1.916-1.487c0-0.58-0.351-0.927-0.894-1.178c-0.268-0.118-0.578-0.214-0.926-0.31
		c-0.349-0.097-0.697-0.174-1.063-0.27c-1.449-0.369-2.959-0.91-2.959-2.728c0-2.146,2.262-2.86,4.041-2.86
		c2.03,0,3.692,0.792,3.788,3.074h-2.202c-0.04-1.159-0.601-1.684-1.724-1.684c-0.789,0-1.758,0.369-1.758,1.259
		c0,0.541,0.369,0.849,0.912,1.102c0.267,0.114,0.575,0.212,0.926,0.309c0.347,0.096,0.733,0.174,1.103,0.271
		c1.488,0.385,2.996,0.947,2.996,2.763C153.382,37.744,151.118,38.497,149.127,38.497z"/>
	<path d="M158.711,38.497c-2.146,0-4.002-0.812-4.077-3.286h2.242c0.058,1.256,0.694,1.892,1.93,1.892
		c0.914,0,1.918-0.481,1.918-1.487c0-0.58-0.349-0.927-0.891-1.178c-0.271-0.118-0.58-0.214-0.927-0.31
		c-0.35-0.097-0.697-0.174-1.066-0.27c-1.447-0.369-2.953-0.91-2.953-2.728c0-2.146,2.261-2.86,4.039-2.86
		c2.029,0,3.689,0.792,3.787,3.074h-2.204c-0.038-1.159-0.599-1.684-1.718-1.684c-0.796,0-1.76,0.369-1.76,1.259
		c0,0.541,0.364,0.849,0.906,1.102c0.271,0.114,0.579,0.212,0.929,0.309c0.348,0.096,0.733,0.174,1.103,0.271
		c1.488,0.385,2.996,0.947,2.996,2.763C162.965,37.744,160.706,38.497,158.711,38.497z"/>
	<path d="M169.928,38.458c-1.356,0-2.224-0.463-3.019-1.509v4.987h-2.24V31.111c0-0.85-0.022-1.7-0.08-2.59h2.204l0.06,1.547
		c0.751-1.179,1.815-1.759,3.249-1.759c2.898,0,4.173,2.338,4.173,4.929C174.274,35.886,172.904,38.458,169.928,38.458z
		 M169.497,29.796c-1.987,0-2.627,1.933-2.627,3.635c0,1.604,0.523,3.558,2.456,3.558c2.029,0,2.647-1.915,2.647-3.635
		C171.974,31.75,171.416,29.796,169.497,29.796z"/>
	<path d="M176.035,26.277v-1.992h2.397v1.992H176.035z M176.112,38.264V28.5h2.241v9.764H176.112z"/>
	<path d="M184.232,38.38c-1.739,0-2.726-0.561-2.726-2.417v-5.935h-1.878V28.5h1.878v-1.759l2.242-0.909V28.5h2.224v1.529h-2.224
		v5.104c0,1.123,0.097,1.623,1.334,1.623c0.308,0,0.581-0.078,0.927-0.096v1.586C185.391,38.323,184.813,38.38,184.232,38.38z"/>
	<path d="M193.617,38.264c-0.074-0.464-0.112-0.908-0.155-1.333c-0.794,1.14-1.833,1.547-3.206,1.547
		c-1.857,0-3.441-0.947-3.441-2.959c0-3.325,4.175-3.286,6.533-3.286c0-0.175,0-0.328,0-0.504c0-1.333-0.442-2.126-1.873-2.126
		c-1.14,0-1.703,0.504-1.781,1.661h-2.162c0.018-2.298,1.951-2.995,3.883-2.995c2.589,0,4.119,0.831,4.119,3.713v2.879
		c0,1.123,0.059,2.241,0.192,3.402H193.617z M192.574,33.431c-1.371,0-3.537,0.231-3.537,1.991c0,1.045,0.912,1.645,1.892,1.645
		c2.149,0,2.437-1.855,2.437-3.616C193.078,33.431,192.829,33.431,192.574,33.431z"/>
	<path d="M197.756,38.264V24.286H200v13.979H197.756z"/>
	<path d="M56.086,58.484h-5.221V44.506h5.296c2.339,0,4.659,0.716,4.659,3.519c0,1.721-1.024,2.725-2.59,3.17
		c1.836,0.329,3.112,1.394,3.112,3.385C61.343,57.672,58.598,58.484,56.086,58.484z M55.794,46.265h-2.59v4.196h2.398
		c1.488,0,2.8-0.483,2.8-2.165C58.402,46.767,57.167,46.265,55.794,46.265z M55.911,52.123h-2.707v4.602h2.3
		c1.663,0,3.383-0.271,3.383-2.282C58.888,52.588,57.555,52.123,55.911,52.123z"/>
	<path d="M69.346,58.484c-0.076-0.463-0.116-0.908-0.153-1.335c-0.793,1.142-1.836,1.547-3.208,1.547
		c-1.859,0-3.443-0.947-3.443-2.957c0-3.325,4.176-3.288,6.535-3.288c0-0.174,0-0.329,0-0.502c0-1.333-0.445-2.126-1.876-2.126
		c-1.139,0-1.7,0.502-1.778,1.663h-2.167c0.021-2.3,1.954-2.998,3.887-2.998c2.592,0,4.119,0.833,4.119,3.713v2.881
		c0,1.121,0.059,2.241,0.194,3.402H69.346z M68.303,53.651c-1.374,0-3.537,0.233-3.537,1.991c0,1.045,0.908,1.643,1.892,1.643
		c2.147,0,2.437-1.856,2.437-3.613C68.805,53.651,68.554,53.651,68.303,53.651z"/>
	<path d="M76.83,58.715c-2.147,0-4.004-0.811-4.08-3.287h2.241c0.06,1.258,0.698,1.894,1.933,1.894c0.91,0,1.915-0.481,1.915-1.487
		c0-0.58-0.347-0.927-0.889-1.18c-0.271-0.116-0.581-0.212-0.928-0.308c-0.347-0.096-0.696-0.175-1.064-0.271
		C74.509,53.708,73,53.168,73,51.352c0-2.147,2.263-2.864,4.043-2.864c2.029,0,3.692,0.793,3.788,3.074h-2.205
		c-0.039-1.158-0.598-1.682-1.72-1.682c-0.792,0-1.757,0.367-1.757,1.257c0,0.54,0.367,0.851,0.908,1.102
		c0.27,0.116,0.578,0.213,0.927,0.311c0.349,0.096,0.735,0.172,1.104,0.27c1.486,0.387,2.994,0.947,2.994,2.765
		C81.082,57.962,78.82,58.715,76.83,58.715z"/>
	<path d="M84.465,54.057v0.155c0,1.623,0.831,3.072,2.611,3.072c1.257,0,2.106-0.733,2.28-2.011h2.166
		c-0.366,2.417-2.28,3.422-4.523,3.422c-3.112,0-4.737-1.951-4.737-4.931c0-3.053,1.604-5.258,4.853-5.258
		c3.48,0,4.448,2.513,4.448,5.549H84.465z M87.076,49.938c-1.604,0-2.417,1.276-2.554,2.745h4.854
		C89.376,51.235,88.681,49.938,87.076,49.938z"/>
	<path d="M93.378,58.484V44.506h2.242v13.979H93.378z"/>
</g>
</svg>
